<svg xmlns="http://www.w3.org/2000/svg" xmlns:xlink="http://www.w3.org/1999/xlink" width="500" zoomAndPan="magnify" viewBox="0 0 375 374.999991" height="500" preserveAspectRatio="xMidYMid meet" version="1.0"><defs><clipPath id="a52b65dfcd"><path d="M 8.929688 172.605469 L 51.488281 172.605469 L 51.488281 262.085938 L 8.929688 262.085938 Z M 8.929688 172.605469 " clip-rule="nonzero"/></clipPath><clipPath id="9f735db4e9"><path d="M 8.929688 172.601562 L 107.492188 172.601562 L 107.492188 204.988281 L 8.929688 204.988281 Z M 8.929688 172.601562 " clip-rule="nonzero"/></clipPath><clipPath id="77b1a82b27"><path d="M 8.929688 110.734375 L 107.492188 110.734375 L 107.492188 143.121094 L 8.929688 143.121094 Z M 8.929688 110.734375 " clip-rule="nonzero"/></clipPath><clipPath id="019982e4d5"><path d="M 107.492188 110.738281 L 180.007812 110.738281 L 180.007812 262.085938 L 107.492188 262.085938 Z M 107.492188 110.738281 " clip-rule="nonzero"/></clipPath><clipPath id="392bef2e9d"><path d="M 143.75 110.738281 L 180.007812 110.738281 L 143.75 262.085938 L 107.492188 262.085938 Z M 143.75 110.738281 " clip-rule="nonzero"/></clipPath><clipPath id="dc35e178a7"><path d="M 151.445312 110.738281 L 225.847656 110.738281 L 225.847656 261.878906 L 151.445312 261.878906 Z M 151.445312 110.738281 " clip-rule="nonzero"/></clipPath><clipPath id="ef9886f18d"><path d="M 188.648438 110.738281 L 151.445312 110.738281 L 188.648438 261.878906 L 225.847656 261.878906 Z M 188.648438 110.738281 " clip-rule="nonzero"/></clipPath><clipPath id="28b8ec2ea5"><path d="M 243.441406 172.605469 L 286.003906 172.605469 L 286.003906 262.085938 L 243.441406 262.085938 Z M 243.441406 172.605469 " clip-rule="nonzero"/></clipPath><clipPath id="55fcb0f64f"><path d="M 226 140 L 318 140 L 318 232 L 226 232 Z M 226 140 " clip-rule="nonzero"/></clipPath><clipPath id="6f2ca66b43"><path d="M 226.429688 170.527344 L 256.308594 140.648438 L 317.746094 202.085938 L 287.863281 231.964844 Z M 226.429688 170.527344 " clip-rule="nonzero"/></clipPath><clipPath id="d24561ced7"><path d="M 226.429688 170.527344 L 256.308594 140.648438 L 317.746094 202.085938 L 287.863281 231.964844 Z M 226.429688 170.527344 " clip-rule="nonzero"/></clipPath><clipPath id="18b4158281"><path d="M 321.582031 113.101562 L 364.144531 113.101562 L 364.144531 202.582031 L 321.582031 202.582031 Z M 321.582031 113.101562 " clip-rule="nonzero"/></clipPath><clipPath id="4f2274b858"><path d="M 289 143 L 375 143 L 375 235 L 289 235 Z M 289 143 " clip-rule="nonzero"/></clipPath><clipPath id="25d32a1322"><path d="M 381.15625 204.667969 L 351.273438 234.546875 L 289.839844 173.113281 L 319.71875 143.230469 Z M 381.15625 204.667969 " clip-rule="nonzero"/></clipPath><clipPath id="1c6bf7ab73"><path d="M 381.15625 204.667969 L 351.273438 234.546875 L 289.839844 173.113281 L 319.71875 143.230469 Z M 381.15625 204.667969 " clip-rule="nonzero"/></clipPath><clipPath id="791f064212"><path d="M 219 105 L 375 105 L 375 273 L 219 273 Z M 219 105 " clip-rule="nonzero"/></clipPath><clipPath id="148b48b342"><path d="M 219.878906 132.476562 L 246.925781 105.425781 L 386.617188 245.117188 L 359.566406 272.167969 Z M 219.878906 132.476562 " clip-rule="nonzero"/></clipPath><clipPath id="e12e237bc2"><path d="M 219.878906 132.476562 L 246.925781 105.425781 L 386.617188 245.117188 L 359.566406 272.167969 Z M 219.878906 132.476562 " clip-rule="nonzero"/></clipPath><clipPath id="d035a68e02"><path d="M 228 113 L 375 113 L 375 262 L 228 262 Z M 228 113 " clip-rule="nonzero"/></clipPath><clipPath id="7318c1068a"><path d="M 228.003906 122.179688 L 237.070312 113.117188 L 376.757812 252.804688 L 367.695312 261.871094 Z M 228.003906 122.179688 " clip-rule="nonzero"/></clipPath><clipPath id="4534981624"><path d="M 228.003906 122.179688 L 237.070312 113.117188 L 376.757812 252.804688 L 367.695312 261.871094 Z M 228.003906 122.179688 " clip-rule="nonzero"/></clipPath><clipPath id="7b983c4205"><path d="M 207.296875 111.820312 L 245.550781 111.820312 L 245.550781 162.921875 L 207.296875 162.921875 Z M 207.296875 111.820312 " clip-rule="nonzero"/></clipPath><clipPath id="4186941362"><path d="M 233.828125 62.023438 L 272.082031 62.023438 L 272.082031 113.121094 L 233.828125 113.121094 Z M 233.828125 62.023438 " clip-rule="nonzero"/></clipPath><clipPath id="8ef47dc428"><path d="M 363.476562 210.984375 L 375 210.984375 L 375 262.085938 L 363.476562 262.085938 Z M 363.476562 210.984375 " clip-rule="nonzero"/></clipPath><clipPath id="3eda0cfe61"><path d="M 331.4375 261.878906 L 369.691406 261.878906 L 369.691406 312.976562 L 331.4375 312.976562 Z M 331.4375 261.878906 " clip-rule="nonzero"/></clipPath><clipPath id="1c6e73bd08"><path d="M 8.921875 210.980469 L 51.484375 210.980469 L 51.484375 262.078125 L 8.921875 262.078125 Z M 8.921875 210.980469 " clip-rule="nonzero"/></clipPath><clipPath id="3fd36026e8"><path d="M 8.921875 228.84375 L 8.921875 262.078125 L 51.484375 262.078125 L 51.484375 228.84375 L 30.203125 210.980469 Z M 8.921875 228.84375 " clip-rule="nonzero"/></clipPath><clipPath id="f4d3f33c3c"><path d="M 8.925781 225.71875 L 51.484375 225.71875 L 51.484375 262.082031 L 8.925781 262.082031 Z M 8.925781 225.71875 " clip-rule="nonzero"/></clipPath><clipPath id="6f0c441c1d"><path d="M 8.925781 243.582031 L 8.925781 262.082031 L 51.484375 262.082031 L 51.484375 243.582031 L 30.203125 225.71875 Z M 8.925781 243.582031 " clip-rule="nonzero"/></clipPath><clipPath id="155bfb5d57"><path d="M 107.492188 230.410156 L 151.445312 230.410156 L 151.445312 262.085938 L 107.492188 262.085938 Z M 107.492188 230.410156 " clip-rule="nonzero"/></clipPath><clipPath id="dd982deeac"><path d="M 115.089844 230.410156 L 151.445312 230.410156 L 143.847656 262.085938 L 107.492188 262.085938 Z M 115.089844 230.410156 " clip-rule="nonzero"/></clipPath><clipPath id="b8f61e1f4f"><path d="M 116.207031 216.242188 L 154.898438 216.242188 L 154.898438 225.722656 L 116.207031 225.722656 Z M 116.207031 216.242188 " clip-rule="nonzero"/></clipPath><clipPath id="039d06e7f1"><path d="M 118.480469 216.242188 L 154.898438 216.242188 L 152.625 225.722656 L 116.207031 225.722656 Z M 118.480469 216.242188 " clip-rule="nonzero"/></clipPath></defs><rect x="-37.5" width="450" fill="#ffffff" y="-37.499999" height="449.999989" fill-opacity="1"/><rect x="-37.5" width="450" fill="#ffffff" y="-37.499999" height="449.999989" fill-opacity="1"/><rect x="-37.5" width="450" fill="#ffffff" y="-37.499999" height="449.999989" fill-opacity="1"/><rect x="-37.5" width="450" fill="#161616" y="-37.499999" height="449.999989" fill-opacity="1"/><g clip-path="url(#a52b65dfcd)"><path fill="#4e9f3d" d="M 8.929688 172.605469 L 51.488281 172.605469 L 51.488281 262.085938 L 8.929688 262.085938 Z M 8.929688 172.605469 " fill-opacity="1" fill-rule="nonzero"/></g><g clip-path="url(#9f735db4e9)"><path fill="#4e9f3d" d="M 8.929688 172.601562 L 107.492188 172.601562 L 107.492188 204.988281 L 8.929688 204.988281 Z M 8.929688 172.601562 " fill-opacity="1" fill-rule="nonzero"/></g><g clip-path="url(#77b1a82b27)"><path fill="#1e5128" d="M 8.929688 110.734375 L 107.492188 110.734375 L 107.492188 143.121094 L 8.929688 143.121094 Z M 8.929688 110.734375 " fill-opacity="1" fill-rule="nonzero"/></g><g clip-path="url(#019982e4d5)"><g clip-path="url(#392bef2e9d)"><path fill="#4e9f3d" d="M 107.492188 110.738281 L 180.007812 110.738281 L 180.007812 262.085938 L 107.492188 262.085938 Z M 107.492188 110.738281 " fill-opacity="1" fill-rule="nonzero"/></g></g><g clip-path="url(#dc35e178a7)"><g clip-path="url(#ef9886f18d)"><path fill="#4e9f3d" d="M 151.445312 110.738281 L 225.847656 110.738281 L 225.847656 261.878906 L 151.445312 261.878906 Z M 151.445312 110.738281 " fill-opacity="1" fill-rule="nonzero"/></g></g><g clip-path="url(#28b8ec2ea5)"><path fill="#4e9f3d" d="M 243.441406 172.605469 L 286.003906 172.605469 L 286.003906 262.085938 L 243.441406 262.085938 Z M 243.441406 172.605469 " fill-opacity="1" fill-rule="nonzero"/></g><g clip-path="url(#55fcb0f64f)"><g clip-path="url(#6f2ca66b43)"><g clip-path="url(#d24561ced7)"><path fill="#161616" d="M 226.429688 170.527344 L 256.308594 140.648438 L 317.746094 202.085938 L 287.863281 231.964844 Z M 226.429688 170.527344 " fill-opacity="1" fill-rule="nonzero"/></g></g></g><g clip-path="url(#18b4158281)"><path fill="#1e5128" d="M 321.582031 113.101562 L 364.144531 113.101562 L 364.144531 202.582031 L 321.582031 202.582031 Z M 321.582031 113.101562 " fill-opacity="1" fill-rule="nonzero"/></g><g clip-path="url(#4f2274b858)"><g clip-path="url(#25d32a1322)"><g clip-path="url(#1c6bf7ab73)"><path fill="#161616" d="M 381.15625 204.667969 L 351.273438 234.546875 L 289.839844 173.113281 L 319.71875 143.230469 Z M 381.15625 204.667969 " fill-opacity="1" fill-rule="nonzero"/></g></g></g><g clip-path="url(#791f064212)"><g clip-path="url(#148b48b342)"><g clip-path="url(#e12e237bc2)"><path fill="#4e9f3d" d="M 219.878906 132.476562 L 246.925781 105.425781 L 386.617188 245.117188 L 359.566406 272.167969 Z M 219.878906 132.476562 " fill-opacity="1" fill-rule="nonzero"/></g></g></g><g clip-path="url(#d035a68e02)"><g clip-path="url(#7318c1068a)"><g clip-path="url(#4534981624)"><path fill="#1e5128" d="M 228.003906 122.179688 L 237.070312 113.117188 L 376.757812 252.804688 L 367.695312 261.871094 Z M 228.003906 122.179688 " fill-opacity="1" fill-rule="nonzero"/></g></g></g><g clip-path="url(#7b983c4205)"><path fill="#161616" d="M 207.296875 111.820312 L 245.550781 111.820312 L 245.550781 162.921875 L 207.296875 162.921875 Z M 207.296875 111.820312 " fill-opacity="1" fill-rule="nonzero"/></g><g clip-path="url(#4186941362)"><path fill="#161616" d="M 233.828125 62.023438 L 272.082031 62.023438 L 272.082031 113.121094 L 233.828125 113.121094 Z M 233.828125 62.023438 " fill-opacity="1" fill-rule="nonzero"/></g><g clip-path="url(#8ef47dc428)"><path fill="#161616" d="M 363.476562 210.984375 L 401.730469 210.984375 L 401.730469 262.085938 L 363.476562 262.085938 Z M 363.476562 210.984375 " fill-opacity="1" fill-rule="nonzero"/></g><g clip-path="url(#3eda0cfe61)"><path fill="#161616" d="M 331.4375 261.878906 L 369.691406 261.878906 L 369.691406 312.976562 L 331.4375 312.976562 Z M 331.4375 261.878906 " fill-opacity="1" fill-rule="nonzero"/></g><g clip-path="url(#1c6e73bd08)"><g clip-path="url(#3fd36026e8)"><path fill="#1e5128" d="M 8.921875 210.980469 L 51.484375 210.980469 L 51.484375 262.078125 L 8.921875 262.078125 Z M 8.921875 210.980469 " fill-opacity="1" fill-rule="nonzero"/></g></g><g clip-path="url(#f4d3f33c3c)"><g clip-path="url(#6f0c441c1d)"><path fill="#d8e9a8" d="M 8.925781 225.71875 L 51.484375 225.71875 L 51.484375 262.082031 L 8.925781 262.082031 Z M 8.925781 225.71875 " fill-opacity="1" fill-rule="nonzero"/></g></g><g clip-path="url(#155bfb5d57)"><g clip-path="url(#dd982deeac)"><path fill="#1e5128" d="M 107.492188 230.410156 L 151.445312 230.410156 L 151.445312 262.085938 L 107.492188 262.085938 Z M 107.492188 230.410156 " fill-opacity="1" fill-rule="nonzero"/></g></g><g clip-path="url(#b8f61e1f4f)"><g clip-path="url(#039d06e7f1)"><path fill="#1e5128" d="M 116.207031 216.242188 L 154.898438 216.242188 L 154.898438 225.722656 L 116.207031 225.722656 Z M 116.207031 216.242188 " fill-opacity="1" fill-rule="nonzero"/></g></g></svg>